<svg xmlns="http://www.w3.org/2000/svg" version="1.1" xmlns:xlink="http://www.w3.org/1999/xlink" xmlns:svgjs="http://svgjs.dev/svgjs" viewBox="0 0 800 800"><defs><linearGradient x1="50%" y1="0%" x2="50%" y2="100%" id="nnneon-grad"><stop stop-color="rgb(16, 185, 129)" stop-opacity="1" offset="0%"></stop><stop stop-color="hsl(145, 87%, 61%)" stop-opacity="1" offset="100%"></stop></linearGradient><filter id="nnneon-filter" x="-100%" y="-100%" width="400%" height="400%" filterUnits="objectBoundingBox" primitiveUnits="userSpaceOnUse" color-interpolation-filters="sRGB">
	<feGaussianBlur stdDeviation="17 18" x="0%" y="0%" width="100%" height="100%" in="SourceGraphic" edgeMode="none" result="blur"></feGaussianBlur></filter><filter id="nnneon-filter2" x="-100%" y="-100%" width="400%" height="400%" filterUnits="objectBoundingBox" primitiveUnits="userSpaceOnUse" color-interpolation-filters="sRGB">
	<feGaussianBlur stdDeviation="0 0" x="0%" y="0%" width="100%" height="100%" in="SourceGraphic" edgeMode="none" result="blur"></feGaussianBlur></filter></defs><g stroke-width="16" stroke="url(#nnneon-grad)" fill="none"><path d="M388.4530107167675 233.46125231926777C395.59828768523175 229.33666774729716 404.40171231476825 229.33666774729716 411.5469892832325 233.46240701819613L538.4530203016707 306.7315181170911C545.5982972701349 310.8561026890618 550.0000095849032 318.48057971278024 550.0000095849032 326.7309035556499V473.2691257534399C550.0000095849032 481.5194495963096 545.5982972701349 489.14392662002797 538.4530203016707 493.26966589092694L411.5469892832325 566.538776989822C404.40171231476825 570.6633615617925 395.59828768523175 570.6633615617925 388.4530107167675 566.5376222908938L261.54697969832927 493.26851119199864C254.401702729865 489.14392662002797 249.99999041509682 481.5194495963096 249.99999041509682 473.2691257534399V326.7309035556499C249.99999041509682 318.48057971278024 254.401702729865 310.8561026890618 261.54697969832927 306.7303634181629L388.4530107167675 233.46125231926777Z " filter="url(#nnneon-filter)"></path><path d="M481.4530107167675 233.46125231926777C488.59828768523175 229.33666774729716 497.40171231476825 229.33666774729716 504.5469892832325 233.46240701819613L631.4530203016707 306.7315181170911C638.5982972701349 310.8561026890618 643.0000095849032 318.48057971278024 643.0000095849032 326.7309035556499V473.2691257534399C643.0000095849032 481.5194495963096 638.5982972701349 489.14392662002797 631.4530203016707 493.26966589092694L504.5469892832325 566.538776989822C497.40171231476825 570.6633615617925 488.59828768523175 570.6633615617925 481.4530107167675 566.5376222908938L354.54697969832927 493.26851119199864C347.401702729865 489.14392662002797 342.9999904150968 481.5194495963096 342.9999904150968 473.2691257534399V326.7309035556499C342.9999904150968 318.48057971278024 347.401702729865 310.8561026890618 354.54697969832927 306.7303634181629L481.4530107167675 233.46125231926777Z " filter="url(#nnneon-filter2)" opacity="0.29"></path><path d="M295.4530107167675 233.46125231926777C302.59828768523175 229.33666774729716 311.40171231476825 229.33666774729716 318.5469892832325 233.46240701819613L445.4530203016707 306.7315181170911C452.59829727013494 310.8561026890618 457.0000095849032 318.48057971278024 457.0000095849032 326.7309035556499V473.2691257534399C457.0000095849032 481.5194495963096 452.59829727013494 489.14392662002797 445.4530203016707 493.26966589092694L318.5469892832325 566.538776989822C311.40171231476825 570.6633615617925 302.59828768523175 570.6633615617925 295.4530107167675 566.5376222908938L168.54697969832927 493.26851119199864C161.401702729865 489.14392662002797 156.99999041509682 481.5194495963096 156.99999041509682 473.2691257534399V326.7309035556499C156.99999041509682 318.48057971278024 161.401702729865 310.8561026890618 168.54697969832927 306.7303634181629L295.4530107167675 233.46125231926777Z " filter="url(#nnneon-filter2)" opacity="0.29"></path><path d="M388.4530107167675 233.46125231926777C395.59828768523175 229.33666774729716 404.40171231476825 229.33666774729716 411.5469892832325 233.46240701819613L538.4530203016707 306.7315181170911C545.5982972701349 310.8561026890618 550.0000095849032 318.48057971278024 550.0000095849032 326.7309035556499V473.2691257534399C550.0000095849032 481.5194495963096 545.5982972701349 489.14392662002797 538.4530203016707 493.26966589092694L411.5469892832325 566.538776989822C404.40171231476825 570.6633615617925 395.59828768523175 570.6633615617925 388.4530107167675 566.5376222908938L261.54697969832927 493.26851119199864C254.401702729865 489.14392662002797 249.99999041509682 481.5194495963096 249.99999041509682 473.2691257534399V326.7309035556499C249.99999041509682 318.48057971278024 254.401702729865 310.8561026890618 261.54697969832927 306.7303634181629L388.4530107167675 233.46125231926777Z "></path></g></svg>